<svg xmlns="http://www.w3.org/2000/svg" width="20.875" height="20" viewBox="0 0 20.875 20">
  <path id="在线客服" d="M82.671,90.945c0-4.522-4.194-8.2-9.349-8.2s-9.348,3.678-9.348,8.2a7.914,7.914,0,0,0,3.6,6.473v1.754a1.4,1.4,0,0,0,.741,1.228,1.432,1.432,0,0,0,.681.174,1.349,1.349,0,0,0,.757-.221l1.079-.707a.889.889,0,0,0,.1-.071l.833-.548a10.553,10.553,0,0,0,1.556.118c5.155,0,9.349-3.678,9.349-8.2Zm-9.349,7.126a9.534,9.534,0,0,1-1.589-.137.546.546,0,0,0-.389.082L70.3,98.7a.5.5,0,0,0-.06.046h0l-.024.015-1.075.7a.362.362,0,0,1-.323-.012.327.327,0,0,1-.169-.28V97.131a.536.536,0,0,0-.248-.452,6.891,6.891,0,0,1-3.352-5.734c0-3.929,3.709-7.126,8.268-7.126s8.269,3.2,8.269,7.126S77.881,98.071,73.322,98.071Zm-3.269-8.208a.922.922,0,1,0,.931.922A.928.928,0,0,0,70.052,89.863Zm3.479,0a.922.922,0,1,0,.931.922A.928.928,0,0,0,73.531,89.863Zm3.479,0a.922.922,0,1,0,.931.922A.928.928,0,0,0,77.01,89.863ZM84.685,93.8a6,6,0,0,0-.431-1.187.547.547,0,1,0-.983.479,4.894,4.894,0,0,1,.352.967,4.836,4.836,0,0,1,.131,1.133,5.241,5.241,0,0,1-2.424,4.286.548.548,0,0,0-.242.455v1.4a.349.349,0,0,1-.153.286.4.4,0,0,1-.382-.021l-.774-.509a.587.587,0,0,0-.065-.051l-.673-.453a.547.547,0,0,0-.392-.086,6.737,6.737,0,0,1-4.307-.685.548.548,0,0,0-.518.965,7.794,7.794,0,0,0,4.782.834l.438.3a.7.7,0,0,0,.149.108l.754.5a1.42,1.42,0,0,0,.792.239,1.781,1.781,0,0,0,.616-.119.541.541,0,0,0,.081-.038,1.454,1.454,0,0,0,.743-1.261v-1.112a6.294,6.294,0,0,0,2.666-5.025,5.926,5.926,0,0,0-.162-1.392Z" transform="translate(-63.973 -82.745)"/>
</svg>
