<?xml version="1.0" standalone="no"?><!DOCTYPE svg PUBLIC "-//W3C//DTD SVG 1.1//EN" "http://www.w3.org/Graphics/SVG/1.1/DTD/svg11.dtd"><svg t="1702022848321" class="icon" viewBox="0 0 1024 1024" version="1.1" xmlns="http://www.w3.org/2000/svg" p-id="9736" xmlns:xlink="http://www.w3.org/1999/xlink" width="200" height="200"><path d="M550.4 544H473.6V192c0-21.504 16.896-38.4 38.4-38.4 21.504 0 38.4 16.896 38.4 38.4v352z" p-id="9737"></path><path d="M324.864 443.136a38.016 38.016 0 0 1 0-54.272 38.016 38.016 0 0 1 54.272 0L512 521.6l132.864-132.8a38.016 38.016 0 0 1 54.272 0 38.016 38.016 0 0 1 0 54.272l-160 160A36.992 36.992 0 0 1 512 614.4a36.992 36.992 0 0 1-27.136-11.264l-160-160zM230.4 704c0-21.504-16.896-38.4-38.4-38.4-21.504 0-38.4 16.896-38.4 38.4v96a69.696 69.696 0 0 0 20.608 49.792 69.76 69.76 0 0 0 49.792 20.608h576a69.696 69.696 0 0 0 49.792-20.608 69.76 69.76 0 0 0 20.608-49.792V704c0-21.504-16.896-38.4-38.4-38.4-21.504 0-38.4 16.896-38.4 38.4v89.6H230.4V704z" p-id="9738"></path></svg>