<?xml version="1.0" encoding="UTF-8"?><svg viewBox="0 0 18 18" version="1.1" xmlns="http://www.w3.org/2000/svg"     xmlns:xlink="http://www.w3.org/1999/xlink"><title>time_long</title><style> @keyframes Moves {form{transform: translate(0,0);}to{transform: translate(0,22%);}}#time_long_rr{animation: Moves steps(4) 1.25s infinite;transform-origin: center;}  @keyframes RouteA {0% {transform: rotate(0)}90% {transform: rotate(0)}100%{transform: rotate(180deg)}}#time_long{transform-origin: center;animation: RouteA linear 2.5s infinite;} </style><g id="time_long" stroke="none" stroke-width="1" fill="none" fill-rule="evenodd"><g id="time_long_a" transform="translate(-135.000000, -684.000000)" fill-rule="nonzero"><g id="time_long_aa" transform="translate(135.000000, 683.000000)"><g id="time_long_aaa" transform="translate(0.000000, 1.000000)"><rect id="time_long_r" fill="#000000" opacity="0" x="0" y="0" width="18" height="18"></rect><g id="time_long_aaaa" transform="translate(1.000000, 1.000000)" fill="#333333"><rect id="time_long_rr" opacity="1" x="7" y="6" width="2" height="2"></rect><path d="M2,1.33332812 L14,1.33332812 L14,2.66667187 L2,2.66667187 L2,1.33332812 Z M3.33332811,2 C3.33332811,1.63180729 3.63180729,1.33332812 4,1.33332812 L12,1.33332812 C12.3681927,1.33332812 12.6666719,1.63180729 12.6666719,2 L12.6666719,5 C12.6666719,5.14825193 12.6173205,5.2922853 12.5263281,5.40932812 L10.5113281,8 L12.5263281,10.5906719 C12.6173205,10.7077147 12.6666719,10.8517481 12.6666719,11 L12.6666719,14 C12.6666719,14.3681927 12.3681927,14.6666719 12,14.6666719 L4,14.6666719 C3.63180729,14.6666719 3.33332811,14.3681927 3.33332811,14 L3.33332811,11 C3.33332811,10.8517481 3.3826795,10.7077147 3.47367187,10.5906719 L5.48867187,8 L3.47367187,5.40932813 C3.3826795,5.2922853 3.33332811,5.14825193 3.33332811,5 L3.33332811,2 Z M4.66667187,2.66667188 L4.66667187,4.77132813 L6.85967188,7.59067188 C7.04694815,7.83142622 7.04694815,8.16857378 6.85967188,8.40932813 L4.66667187,11.2286719 L4.66667187,13.3333281 L11.3333281,13.3333281 L11.3333281,11.2286719 L9.14032812,8.40932813 C8.95305185,8.16857378 8.95305185,7.83142622 9.14032812,7.59067188 L11.3333281,4.77132813 L11.3333281,2.66667188 L4.66667187,2.66667188 Z M2,13.3333281 L14,13.3333281 L14,14.6666719 L2,14.6666719 L2,13.3333281 L2,13.3333281 Z" id="time_long_p"></path><path d="M7.47367187,6.90932813 L6.307,5.40932812 L7.35965625,4.59067187 L8,5.414 L8.64032812,4.59067187 L9.693,5.40932812 L8.52632812,6.90932813 C8.40002708,7.07178824 8.2057796,7.16681777 8,7.16681777 C7.7942204,7.16681777 7.59997292,7.07178824 7.47367187,6.90932813 Z" id="time_long_ppp"></path><path id="time_long_pppp" d="M6.33332813,10.6666719 L9.66667187,10.6666719 L9.66667187,12 L6.33332813,12 L6.33332813,10.6666719 L6.33332813,10.6666719 Z"></path></g></g></g></g></g></svg>