<?xml version="1.0" encoding="UTF-8"?>
<svg t="1655169189665" class="icon" viewBox="0 0 1024 1024" version="1.1" xmlns="http://www.w3.org/2000/svg" p-id="9439"
    data-spm-anchor-id="a313x.7781069.0.i5" width="200" height="200">
    <path
        d="M124.343 410.843q87.771 0 87.771 87.771v372.224q0 87.771-87.771 87.771-87.772 0-87.772-87.771V498.615q0-87.771 87.772-87.771z
            M490.057 0q87.772 0 87.772 87.771V870.84q0 87.771-87.772 87.771-87.771 0-87.771-87.771V87.77Q402.286 0 490.057 0z
               M855.771 410.843q87.772 0 87.772 87.772v372.224q0 87.771-87.772 87.771Q768 958.61 768 870.84V498.615q0-87.772 87.771-87.772z"
        fill="#ffffff" p-id="9440" data-spm-anchor-id="a313x.7781069.0.i0" class=""></path>
</svg>