<?xml version="1.0" encoding="UTF-8"?>
<svg width="135px" height="48px" viewBox="0 0 135 48" version="1.1" xmlns="http://www.w3.org/2000/svg" xmlns:xlink="http://www.w3.org/1999/xlink">
    <title>保标/对号1@3x</title>
    <g id="页面-1" stroke="none" stroke-width="1" fill="none" fill-rule="evenodd">
        <g id="搜索结果页" transform="translate(-546.000000, -2462.000000)">
            <g id="编组-8备份-4" transform="translate(24.000000, 2402.000000)">
                <g id="编组-5" transform="translate(39.000000, 60.000000)">
                    <g id="编组-10" transform="translate(144.000000, 0.000000)">
                        <g id="保标/盾牌+保障" transform="translate(339.000000, 0.000000)">
                            <path d="M111.247423,1.13814433 C117.53322,1.13814433 123.223942,3.6859672 127.343214,7.80523946 C131.462486,11.9245117 134.010309,17.6152334 134.010309,23.9010309 C134.010309,30.1868285 131.462486,35.8775501 127.343214,39.9968224 C123.223942,44.1160947 117.53322,46.6639175 111.247423,46.6639175 L111.247423,46.6639175 L21.5611193,46.6639175 L21.5611193,1.13814433 Z" id="矩形备份" stroke="#7CABF7" stroke-width="1.97938144" opacity="0.5"></path>
                            <g id="编组-2" transform="translate(0.000000, 0.000000)">
                                <path d="M19.8227098,0.274287317 L3.52270171,4.29591286 C1.45378197,4.80636786 6.83694574e-13,6.66242941 6.82121026e-13,8.79339004 L6.82121026e-13,28.7288275 L6.82121026e-13,28.7288275 C6.82121026e-13,30.1444324 0.360694413,31.5493669 1.08915568,32.9471878 C1.8105445,34.3485655 2.75825139,35.7001481 3.92874012,37.0161627 C5.09569263,38.3286205 6.42884747,39.5734991 7.9211322,40.7436851 C9.4098807,41.9174278 10.926919,42.9631259 12.4757832,43.8807793 C14.0211112,44.7984327 15.5098597,45.5631439 16.9455649,46.1713561 C17.6047162,46.4489613 18.4807736,46.7462467 19.5737371,47.0632123 L19.5737381,47.063209 C20.6309409,47.3698037 21.7536332,47.3687044 22.8102336,47.0600398 C23.8871526,46.7454397 24.7470939,46.4492117 25.3900577,46.1713561 C26.7939369,45.5631439 28.243787,44.7984327 29.7360717,43.8807793 C31.270237,42.9313386 32.741995,41.8834704 34.1422015,40.7436851 C35.5920516,39.5699423 36.8827718,38.3250637 38.0108259,37.0161627 C39.13888,35.7001481 40.0476884,34.3485655 40.74786,32.9471878 C41.440959,31.5493669 41.7910448,30.1444324 41.7910448,28.7288275 L41.7910448,8.79014988 C41.7910448,6.66068778 40.339265,4.80552577 38.2722434,4.2936368 L22.0458935,0.275251414 C21.3158972,0.0944709819 20.5528626,0.0941400876 19.8227098,0.274287317 Z" id="路径" fill="#7CABF7"></path>
                                <path d="M11.0922222,20.5884202 L17.6679262,27.2403537 C18.6080095,28.191335 20.1410204,28.2001696 21.0920017,27.2600863 C21.1044457,27.2477849 21.116756,27.235349 21.1289304,27.2227807 L32,16 L32,16" id="对号(borders:GC40)" stroke="#FFFFFF" stroke-width="4" stroke-linejoin="round"></path>
                            </g>
                            <g id="保障" transform="translate(53.000000, 9.896907)" stroke="#7CABF7" stroke-linecap="round">
                                <line x1="4.45431568" y1="1.03641161" x2="0.113558919" y2="8.79281574" id="Stroke-1" stroke-width="2.92092505"></line>
                                <line x1="12.2627059" y1="17.6559808" x2="9.31135459" y2="25.540681" id="Stroke-3" stroke-width="2.92092505"></line>
                                <line x1="22.4675027" y1="17.6559808" x2="26.0025405" y2="25.540681" id="Stroke-5" stroke-width="2.92092505"></line>
                                <line x1="4.45420216" y1="1.03641161" x2="4.46169405" y2="26.2518588" id="Stroke-7" stroke-width="2.92092505"></line>
                                <line x1="17.6569135" y1="8.64438781" x2="17.6569135" y2="26.3937259" id="Stroke-9" stroke-width="2.92092505"></line>
                                <path d="M11.2977276,1.26177222 L24.0160086,1.26177222 C24.892787,1.26177222 25.6033816,1.97739885 25.6033816,2.8597429 L25.6033816,6.63874586 C25.6033816,7.52108991 24.892787,8.23671654 24.0160086,8.23671654 L11.2977276,8.23671654 C10.4211762,8.23671654 9.71035459,7.52108991 9.71035459,6.63874586 L9.71035459,2.8597429 C9.71035459,1.97739885 10.4211762,1.26177222 11.2977276,1.26177222 Z" id="Stroke-11" stroke-width="2.9784448"></path>
                                <line x1="9.58283351" y1="13.3314015" x2="25.7310389" y2="13.3314015" id="Stroke-13" stroke-width="2.92092505"></line>
                                <line x1="48.8589405" y1="0.22455173" x2="50.3112324" y2="2.05776923" id="Stroke-15" stroke-width="2.69623851"></line>
                                <path d="M44.9517146,12.0467262 L55.6707957,12.0467262 C56.4097686,12.0467262 57.0086659,12.7933776 57.0086659,13.7139742 L57.0086659,17.8690297 C57.0086659,18.7896263 56.4097686,19.5362776 55.6707957,19.5362776 L44.9517146,19.5362776 C44.2129686,19.5362776 43.6140714,18.7896263 43.6140714,17.8690297 L43.6140714,13.7139742 C43.6140714,12.7933776 44.2129686,12.0467262 44.9517146,12.0467262 Z" id="Stroke-17" stroke-width="2.24686542"></path>
                                <line x1="42.5017524" y1="2.6776794" x2="58.6499578" y2="2.6776794" id="Stroke-19" stroke-width="2.69623851"></line>
                                <line x1="42.5017524" y1="8.29484295" x2="58.6499578" y2="8.29484295" id="Stroke-21" stroke-width="2.69623851"></line>
                                <path d="M33.4464843,26.7055459 L33.4464843,1.21373423 L37.6882573,1.21373423 C38.5480086,1.21373423 39.2449816,1.90352192 39.2449816,2.75440985 C39.2449816,2.88023432 39.2295438,3.00538472 39.1986681,3.12738951 L37.5658897,9.60802345 L37.879187,9.99583242 C38.5416519,10.8152642 38.9023978,11.8337683 38.9023978,12.8830545 L38.9023978,16.8941586 C38.9023978,18.1706029 37.8569384,19.2052844 36.5674249,19.2052844 L34.8604086,19.2052844" id="Stroke-25" stroke-width="2.92092505"></path>
                                <line x1="50.3243243" y1="19.8473112" x2="50.3488054" y2="26.8432113" id="Stroke-27" stroke-width="2.69623851"></line>
                                <g id="编组-3" transform="translate(45.745946, 3.370298)" stroke-width="2.69623851">
                                    <line x1="0.718918919" y1="3.63061996" x2="0.0378378378" y2="4.08562073e-13" id="Stroke-31"></line>
                                    <line x1="9.42162162" y1="3.63061996" x2="8.74054054" y2="4.08562073e-13" id="Stroke-31备份" transform="translate(9.081081, 1.815310) scale(-1, 1) translate(-9.081081, -1.815310) "></line>
                                </g>
                                <line x1="44.0681027" y1="15.728058" x2="56.6065784" y2="15.728058" id="Stroke-29" stroke-width="2.24686542"></line>
                                <line x1="42.5017524" y1="23.5171914" x2="58.6499578" y2="23.5171914" id="Stroke-23" stroke-width="2.69623851"></line>
                            </g>
                        </g>
                    </g>
                </g>
            </g>
        </g>
    </g>
</svg>