<svg width="125" height="125" viewBox="0 0 125 125" xmlns="http://www.w3.org/2000/svg">
    <g stroke-width="2" fill="none" fill-rule="evenodd" stroke-linejoin="round">
        <path stroke="#000" fill="#E2E2E2" d="M90.618 39.263 65.235 54.77 62.65 66.668l-4.317-.64-5.512-8.286-29.331-.769 29.59-16.728 8.69-.439 4.757 3.105 3.767-3.105z"/>
        <path stroke="#333" stroke-linecap="round" d="m23.49 56.973 29.583.775 5.26 8.28 4.064.646 8.13 30.43-37.692-4.09-5.702-21.539"/>
        <path stroke="#333" stroke-linecap="round" d="m23.49 56.973 29.59.775-2.653 6.938-8.303 5.82-4.704-1.024-.955-3.072-5.514 4.77-12.71-.673zM90.618 39.263 65.17 54.81l-2.52 12.81 7.878 29.483 29.336-22.53-1.87-7.137-3.498-13.363"/>
        <path stroke="#333" stroke-linecap="round" d="M90.618 39.263 64.875 54.99l3.277 9.087 8.78 1.63 25.287-17.11z"/>
        <path stroke-opacity=".9" stroke="#333" d="m23.49 56.973 30.361-16.728 8.863-.237 2.964 2.351 6.17-2.595 18.77-.5"/>
        <path stroke="#333" stroke-linecap="round" d="m35.759 41.405-6.96-2.32M46.84 33.392l.642-8.403M40.311 35.915l-7.391-9.018"/>
    </g>
</svg>
